<?xml version="1.0" standalone="no"?>
<!DOCTYPE svg PUBLIC "-//W3C//DTD SVG 20010904//EN"
 "http://www.w3.org/TR/2001/REC-SVG-20010904/DTD/svg10.dtd">
<svg version="1.0" xmlns="http://www.w3.org/2000/svg"
 width="200.000000pt" height="200.000000pt" viewBox="0 0 200.000000 200.000000"
 preserveAspectRatio="xMidYMid meet">
<metadata>
Created by potrace 1.16, written by Peter Selinger 2001-2019
</metadata>
<g transform="translate(0.000000,200.000000) scale(0.100000,-0.100000)"
fill="#000000" stroke="none">
<path d="M560 1555 l0 -125 130 0 130 0 0 125 0 125 -130 0 -130 0 0 -125z"/>
<path d="M560 1245 l0 -125 130 0 130 0 0 125 0 125 -130 0 -130 0 0 -125z"/>
<path d="M560 935 l0 -125 130 0 130 0 0 125 0 125 -130 0 -130 0 0 -125z"/>
<path d="M860 935 l0 -125 130 0 130 0 0 125 0 125 -130 0 -130 0 0 -125z"/>
<path d="M1160 935 l0 -125 130 0 130 0 0 125 0 125 -130 0 -130 0 0 -125z"/>
<path d="M1082 538 l3 -133 38 -3 c32 -3 37 0 37 17 0 12 -7 21 -15 21 -22 0
-22 125 0 134 19 7 20 36 1 36 -9 0 -16 12 -18 28 -2 19 -9 28 -26 30 l-23 3
3 -133z"/>
<path d="M1520 536 l0 -136 25 0 c24 0 25 2 25 68 0 71 16 102 51 102 30 0 39
-24 39 -97 l0 -73 30 0 c30 0 30 0 30 58 0 76 -16 129 -43 143 -26 15 -74 14
-92 -1 -11 -9 -14 -4 -17 27 -2 31 -7 39 -25 41 -23 3 -23 3 -23 -132z"/>
<path d="M688 605 c-19 -5 -34 -18 -36 -29 -4 -16 1 -17 47 -11 27 4 55 4 61
0 17 -10 -8 -35 -36 -35 -60 0 -94 -40 -80 -94 11 -46 113 -53 154 -12 23 23
29 129 9 160 -19 28 -71 37 -119 21z"/>
<path d="M211 591 c-42 -42 -35 -158 11 -182 27 -15 75 -14 93 1 11 9 14 3 17
-37 3 -41 6 -48 26 -51 22 -3 22 -2 22 118 0 115 -1 122 -25 145 -32 33 -114
36 -144 6z"/>
<path d="M420 529 c0 -44 5 -89 10 -99 23 -43 137 -43 160 0 5 10 10 55 10
100 0 79 -1 81 -22 78 -21 -3 -23 -10 -28 -77 -5 -81 -23 -107 -57 -85 -14 9
-19 28 -21 88 -3 73 -4 76 -27 76 -24 0 -25 -2 -25 -81z"/>
<path d="M879 592 c-19 -16 -23 -31 -27 -105 l-5 -87 31 0 31 0 3 83 c3 78 4
82 27 85 37 6 51 -22 51 -100 0 -66 1 -68 25 -68 25 0 25 1 25 79 0 104 -19
131 -90 131 -32 0 -55 -6 -71 -18z"/>
<path d="M1309 591 c-23 -18 -24 -27 -27 -146 l-4 -127 24 4 c20 3 23 9 26 50
l3 47 30 -13 c43 -18 78 -8 100 28 33 54 17 153 -26 170 -35 13 -103 6 -126
-13z"/>
</g>
</svg>
